<svg id="Layer_2" data-name="Layer 2" xmlns="http://www.w3.org/2000/svg" viewBox="0 0 940 263"><defs><style>.cls-1{fill:#ff0031;}</style></defs><title>Logo3</title><path class="cls-1" d="M1007.5,563.19a5.54,5.54,0,0,0-5.5,5.67V570h-6.47a23.79,23.79,0,0,0-3.43-8.48l4.35-4.35.47.47a5.5,5.5,0,1,0,7.78-7.78l-8-8a5.5,5.5,0,1,0-7.78,7.78l.47.47L985,554.46a23.79,23.79,0,0,0-8-3.31V545h.67a5.5,5.5,0,1,0,0-11H966.33a5.5,5.5,0,1,0,0,11H967v6.17a23.8,23.8,0,0,0-8.35,3.55L954,550.1l.75-.75a5.5,5.5,0,1,0-7.78-7.78l-8,8a5.5,5.5,0,1,0,7.78,7.78l.19-.19,4.76,4.76a23.78,23.78,0,0,0-3.17,8.07H942v-1.06a5.5,5.5,0,1,0-11,0v11.33a5.5,5.5,0,1,0,11,0V580h6.73a23.79,23.79,0,0,0,3.2,7.54l-5,5-.42-.42a5.5,5.5,0,1,0-7.78,7.78l8,8a5.5,5.5,0,1,0,7.78-7.78l-.53-.53,5-5a23.79,23.79,0,0,0,8,3.34v7h-.59a5.5,5.5,0,1,0,0,11h11.33a5.5,5.5,0,1,0,0-11H977v-7a23.78,23.78,0,0,0,7.68-3.09l4.71,4.71-.14.14a5.5,5.5,0,1,0,7.78,7.78l8-8a5.5,5.5,0,1,0-7.78-7.78l-.81.81L991.88,588a23.81,23.81,0,0,0,3.46-8H1002v.19a5.5,5.5,0,1,0,11,0V568.86A5.54,5.54,0,0,0,1007.5,563.19Z" transform="translate(-73 -353)"/><path class="cls-1" d="M784.5,410.84a3.5,3.5,0,0,0-3.5,3.44V415h-3.73a13.57,13.57,0,0,0-2.08-5.16l2.64-2.65.29.28a3.34,3.34,0,1,0,4.72-4.72L778,397.9a3.34,3.34,0,1,0-4.72,4.72l.29.29-2.66,2.65a12.72,12.72,0,0,0-4.88-2V400h.44a3.5,3.5,0,0,0,0-7h-6.87a3.5,3.5,0,0,0,0,7H760v3.55a13.35,13.35,0,0,0-5.08,2.16l-2.81-2.81.45-.46a3.34,3.34,0,1,0-4.72-4.72L743,402.59a3.34,3.34,0,1,0,4.72,4.72l.12-.12,2.89,2.9a12.83,12.83,0,0,0-1.92,4.91H745v-.68a3.5,3.5,0,0,0-7,0v6.87a3.5,3.5,0,0,0,7,0V421h3.89a11.75,11.75,0,0,0,1.94,4.59l-3,3-.25-.25a3.34,3.34,0,1,0-4.72,4.72l4.86,4.86a3.34,3.34,0,1,0,4.72-4.72l-.32-.32,3-3a12.7,12.7,0,0,0,4.87,2V436h-.39a3.5,3.5,0,0,0,0,7h6.87a3.5,3.5,0,0,0,0-7H766v-4.06a12,12,0,0,0,4.67-1.88l2.86,2.85-.08.08a3.34,3.34,0,1,0,4.72,4.72l4.86-4.86a3.34,3.34,0,1,0-4.72-4.72l-.49.49-2.77-2.79a12.59,12.59,0,0,0,2.1-4.84H781v.15a3.5,3.5,0,0,0,7,0v-6.87A3.5,3.5,0,0,0,784.5,410.84Z" transform="translate(-73 -353)"/><path class="cls-1" d="M170.5,393.27a5.54,5.54,0,0,0-5.5,5.67V400h-7.09a33.37,33.37,0,0,0-6.06-15.39l5-5,.47.47a5.5,5.5,0,1,0,7.78-7.78l-8-8a5.5,5.5,0,1,0-7.78,7.78l.47.47-4.95,4.95A33.39,33.39,0,0,0,130,371.11V364h.67a5.5,5.5,0,1,0,0-11H119.33a5.5,5.5,0,1,0,0,11H120v7a33.37,33.37,0,0,0-15.11,6.1l-5.29-5.29.57-.57a5.5,5.5,0,1,0-7.78-7.78l-8,8a5.5,5.5,0,1,0,7.78,7.78l.37-.37,5.24,5.24A33.39,33.39,0,0,0,91.47,399H84v-.81a5.5,5.5,0,1,0-11,0v11.33a5.5,5.5,0,1,0,11,0V409h7.41a33.36,33.36,0,0,0,5.85,14.64l-5.44,5.44-.29-.29a5.5,5.5,0,1,0-7.78,7.78l8,8a5.5,5.5,0,1,0,7.78-7.78l-.65-.65,5.3-5.3A33.39,33.39,0,0,0,119,437.31V445h-.42a5.5,5.5,0,1,0,0,11h11.33a5.5,5.5,0,1,0,0-11H129v-7.5a33.36,33.36,0,0,0,14.92-5.82l5.18,5.18-.19.19a5.5,5.5,0,1,0,7.78,7.78l8-8a5.5,5.5,0,1,0-7.78-7.78l-.75.75-5-5A33.39,33.39,0,0,0,157.68,410H165v.27a5.5,5.5,0,1,0,11,0V398.94A5.54,5.54,0,0,0,170.5,393.27Z" transform="translate(-73 -353)"/></svg>