<svg id="Layer_3" data-name="Layer 3" xmlns="http://www.w3.org/2000/svg" viewBox="0 0 805.03 135.21"><defs><style>.cls-1{fill:#c7b299;}.cls-2{fill:#ff0031;}</style></defs><title>Logo2</title><path class="cls-1" d="M185.25,536.4a5.4,5.4,0,0,1,3.52,4,6.41,6.41,0,0,1-.78,5.38,5.11,5.11,0,0,1-3.52,1.47,5.9,5.9,0,0,0-3.72,1.47,3.85,3.85,0,0,1-2.05.68,7.69,7.69,0,0,0-2.25.49q-1.37.39-4.4,1t-6.36,1.08q-3.33.49-6.16.88t-3.81.59a3.26,3.26,0,0,1-3.72-2.15q-.59-1.56-1.27-3.13a11.09,11.09,0,0,1-.88-3.13,2.86,2.86,0,0,1,.59-2.15,5.62,5.62,0,0,1,1.76-1.76,30.68,30.68,0,0,1,4.3-2.64q2.15-1.07,4.5-2.44a28.06,28.06,0,0,1,4.5-2.15,25.41,25.41,0,0,1,4.21-.1,57.34,57.34,0,0,1,6.36.59q3.32.49,6.06,1T185.25,536.4Zm45.58,7.82a5.69,5.69,0,0,1-.39,3.62q-.78,1.66-1.37,3.23-1.76,3.72-5.09,2.44a20.19,20.19,0,0,1-6.55-4.3,45.51,45.51,0,0,1-5.77-6.55q-2.54-3.52-3.13-4.3a19.51,19.51,0,0,1-1.66-3.33,20.06,20.06,0,0,0-1.66-3.33q-1-1.76-3-5.28t-4.5-7.43q-2.45-3.91-4.89-7.33a42.43,42.43,0,0,0-4-5,21.16,21.16,0,0,0-3.81-3q-2.05-1.27-4.21-2.84-1.57-1-2.84-1.86t-2.84-1.86a1.78,1.78,0,0,0-1-.49,7.81,7.81,0,0,1-1.56-.49c-.13.52-.26,1-.39,1.37a3.65,3.65,0,0,0-.2,1.17q-.59,3.92-1,7.73a34.23,34.23,0,0,1-1.56,7.33,52.07,52.07,0,0,0-1.76,7.34q-.59,3.62-1,7.33-.2,2.54-1,3.13t-3.52.39a1.65,1.65,0,0,0-1.56,0,2.5,2.5,0,0,1-2.35-.29,4.26,4.26,0,0,1-1.17-1.66,3.63,3.63,0,0,1-.29-.78,4.15,4.15,0,0,0-.29-.78q-.59-2.15-1.86-8.7t-2.35-13.79q-1.08-7.23-1.76-13.4t-.29-7.92q0-5.08.1-10.37t.29-10.37q0-2.15-.2-4.5a25.72,25.72,0,0,1,0-4.5q.39-3.32.68-6.36t.69-6.36a10.75,10.75,0,0,0,.39-2.35,5.6,5.6,0,0,1,3.13-5.67A54.06,54.06,0,0,1,165.89,430a7,7,0,0,1,7.33,2.44,10,10,0,0,1,2.44,7.53q-.2,1.76-.39,3.52a30,30,0,0,0-.2,3.33l-.59,22.3a5.38,5.38,0,0,1-.2,1.47q-.2.69-.39,1.47c.13.13.23.2.29.2s.16.07.29.2q2.74-3.71,5.57-7.24t5.57-7.43q3.13-4.5,5.87-9.1a89,89,0,0,1,6.06-8.9,38.92,38.92,0,0,0,4.6-7.53,44.62,44.62,0,0,1,4.6-7.73l1.47-1.86q.68-.88,1.47-1.86a7.87,7.87,0,0,1,6.26-2.15q4.3.39,5.77,2.74a8.54,8.54,0,0,1,1.08,5.67,27.31,27.31,0,0,1-2.15,7.43,69.69,69.69,0,0,1-4,7.92q-2.25,3.81-4.5,7.24T208.53,455a68.51,68.51,0,0,1-7.73,9q-4.21,4.11-8.51,8l-6.46,6.06-6.45,6.06a62.88,62.88,0,0,1,16,10,114.94,114.94,0,0,1,8.31,8.41q5.18,5.68,10.27,12t9.39,12.13a51.5,51.5,0,0,1,5.67,8.9,11.62,11.62,0,0,1,1.17,4.21Q230.43,542.07,230.83,544.22Z" transform="translate(-149.81 -418.63)"/><path class="cls-1" d="M301.64,513.71a3,3,0,0,1,1.17.39,4.92,4.92,0,0,1,2.54,2.45q.59,1.47-1,2.84a41.43,41.43,0,0,1-19.46,8.9,78.69,78.69,0,0,1-43.23-4.4q-9.49-3.91-14.18-9a8,8,0,0,1-2-4.4,16.64,16.64,0,0,1,.2-4.4,2.78,2.78,0,0,1,3.13-2.54,10.62,10.62,0,0,1,1.47.1,13.43,13.43,0,0,0,1.86.1,94.78,94.78,0,0,1-1-10.17,84.87,84.87,0,0,1,.2-10q.19-2.54.39-5t.39-4.79a33.23,33.23,0,0,0,.2-3.62,38.08,38.08,0,0,1,.2-3.81,4.87,4.87,0,0,1-3.81-2.25,12.27,12.27,0,0,1-1.47-4,5.6,5.6,0,0,1,.88-4.3,12.26,12.26,0,0,1,3.42-3.13A59.65,59.65,0,0,1,247,446.42,123.39,123.39,0,0,1,266,442.8a102.5,102.5,0,0,1,18.88-.39,48.92,48.92,0,0,1,14.77,3,8.91,8.91,0,0,1,3.72,4.4,28.83,28.83,0,0,1,2.05,10.07,32.27,32.27,0,0,0,.49,4.5Zm-13.11-.78q0-4.11-.59-10.86t-1.27-14.28q-.69-7.53-1.27-15t-.59-13.11c-.65-.13-1.27-.23-1.86-.29a17,17,0,0,0-1.86-.1q-1,0-5.28.39t-9.29.78q-5,.39-9.19.78t-5,.59a1.25,1.25,0,0,1-1,0q-2.93-.78-2.93,2.35,0,1-.1,4t-.1,6.46v11.05a100.88,100.88,0,0,1,.1,11.74A46.62,46.62,0,0,1,246.28,509a20,20,0,0,0,8.22,3.13,110.58,110.58,0,0,0,11.35,1.47q6.06.49,12,.68t10.46.78a6.55,6.55,0,0,1,.1-1.27A4.59,4.59,0,0,0,288.53,512.92ZM277,465.78a5.8,5.8,0,0,1,3.42,2.05,9.71,9.71,0,0,1,1.47,4.4,19.81,19.81,0,0,1-.49,8.12,55.79,55.79,0,0,1-2.84,7.73l-1.17,1.76a27.94,27.94,0,0,1-1.76,2.35q-1,1.17-2,2.15l-1.56,1.56q-2.35,2.15-4.89,4.11t-5.28,4.11a6.58,6.58,0,0,1-7.24.78q-1.76-2.35-1.17-4.3a11.7,11.7,0,0,1,2.15-3.91,33,33,0,0,0,5-7.92,77.19,77.19,0,0,0,3.23-8.7q1-2.74,2-5.38a53.6,53.6,0,0,1,2.35-5.38,6,6,0,0,1,3.62-3.13A8.9,8.9,0,0,1,277,465.78Z" transform="translate(-149.81 -418.63)"/><path class="cls-1" d="M360.51,502.56a55.86,55.86,0,0,0,7.24,19.66,43,43,0,0,0,15.06,15.35q1,.59,2.05,1.37a2.27,2.27,0,0,1,.68,2.54,6.79,6.79,0,0,0-.2,1.66,1.41,1.41,0,0,1-.59,1.27q-3.13,2-8.22,1.08A40.19,40.19,0,0,1,366,542a60.43,60.43,0,0,1-10.37-6.36,37.63,37.63,0,0,1-7.63-7.43,48,48,0,0,1-4-6.75q-1.66-3.42-3.62-6.75a6.35,6.35,0,0,1-.39-1.56,15.7,15.7,0,0,0-.59-2.35,17.06,17.06,0,0,0-.88-2.15q-.49-1-1.08-1a3.9,3.9,0,0,0-3,2.74q-.88,2.35-1.47,4.3-.78,1.76-2.15,4.69t-3.13,6.06a53.18,53.18,0,0,1-3.81,5.87,18.5,18.5,0,0,1-4,4.11q-2,1.37-3.42.39a4.14,4.14,0,0,1-1.66-3.33q0-7.23-.29-15.75t-.29-15.16q0-2.54.1-5.09t.29-5.09v-4.3q0-2.15.2-4.3.19-3.91.78-9.29l1.17-10.76q.59-5.38,1.17-10.27t1-7.63q.39-4.11,3.91-5.09.39-1.17,4.5-1.17a93.71,93.71,0,0,1,10.17.68q6.06.69,13,2.05t13,2.64q6.06,1.27,10.37,2.35l5.09,1.27a6,6,0,0,1,4.3,6.06A158.21,158.21,0,0,1,381,475.56a155,155,0,0,1-5.38,21.32A6.87,6.87,0,0,1,370.1,502q-2,.39-3.81.59t-3.81.59a3.17,3.17,0,0,1-1-.2,3.28,3.28,0,0,0-1-.2l-.2-.2Zm-1.17-20q.39-4.69.78-9.49t.78-9.68q-5.87-.39-11.44-1.27a52.44,52.44,0,0,1-11.05-3V485a50.45,50.45,0,0,1,10.27-2.25A64.1,64.1,0,0,1,359.34,482.61Z" transform="translate(-149.81 -418.63)"/><path class="cls-1" d="M466.53,513.71a3,3,0,0,1,1.17.39,4.93,4.93,0,0,1,2.54,2.45q.59,1.47-1,2.84a41.43,41.43,0,0,1-19.46,8.9,78.69,78.69,0,0,1-43.23-4.4q-9.49-3.91-14.18-9a8,8,0,0,1-2-4.4,16.64,16.64,0,0,1,.2-4.4,2.78,2.78,0,0,1,3.13-2.54,10.62,10.62,0,0,1,1.47.1,13.43,13.43,0,0,0,1.86.1,94.78,94.78,0,0,1-1-10.17,84.87,84.87,0,0,1,.2-10q.19-2.54.39-5t.39-4.79a33.23,33.23,0,0,0,.2-3.62,38.08,38.08,0,0,1,.2-3.81,4.87,4.87,0,0,1-3.81-2.25,12.27,12.27,0,0,1-1.47-4,5.6,5.6,0,0,1,.88-4.3,12.26,12.26,0,0,1,3.42-3.13,59.65,59.65,0,0,1,15.35-6.26,123.39,123.39,0,0,1,19.07-3.62,102.5,102.5,0,0,1,18.88-.39,48.91,48.91,0,0,1,14.77,3,8.92,8.92,0,0,1,3.72,4.4,28.88,28.88,0,0,1,2.05,10.07,32.2,32.2,0,0,0,.49,4.5Zm-13.11-.78q0-4.11-.59-10.86t-1.27-14.28q-.69-7.53-1.27-15t-.59-13.11c-.65-.13-1.27-.23-1.86-.29a17.08,17.08,0,0,0-1.86-.1q-1,0-5.28.39t-9.29.78q-5,.39-9.19.78t-5,.59a1.25,1.25,0,0,1-1,0q-2.93-.78-2.93,2.35,0,1-.1,4t-.1,6.46v11.05a100.88,100.88,0,0,1,.1,11.74A46.62,46.62,0,0,1,411.17,509a20,20,0,0,0,8.22,3.13,110.58,110.58,0,0,0,11.35,1.47q6.06.49,12,.68t10.46.78a6.48,6.48,0,0,1,.1-1.27A4.55,4.55,0,0,0,453.42,512.92Zm-11.54-47.14a5.8,5.8,0,0,1,3.42,2.05,9.72,9.72,0,0,1,1.47,4.4,19.83,19.83,0,0,1-.49,8.12,55.53,55.53,0,0,1-2.84,7.73l-1.17,1.76a27.83,27.83,0,0,1-1.76,2.35q-1,1.17-2,2.15L437,495.91q-2.35,2.15-4.89,4.11t-5.28,4.11a6.58,6.58,0,0,1-7.24.78q-1.76-2.35-1.17-4.3a11.7,11.7,0,0,1,2.15-3.91,33,33,0,0,0,5-7.92,77.19,77.19,0,0,0,3.23-8.7q1-2.74,2-5.38a53.7,53.7,0,0,1,2.35-5.38,6,6,0,0,1,3.62-3.13A8.9,8.9,0,0,1,441.88,465.78Z" transform="translate(-149.81 -418.63)"/><path class="cls-1" d="M527.56,463.44a42.89,42.89,0,0,0-13.11-1.08q-6.45.49-13.11.49-.2,4.11-.39,7.92t-.59,7.73q-1.37,13.11-3.72,26.6a117.51,117.51,0,0,1-8,26.6,4,4,0,0,1-2,2.25,4.27,4.27,0,0,1-2.74.1q-2.93-.59-3.33-4.11c0-1,0-2,.1-2.93s.16-1.89.29-2.93a25.9,25.9,0,0,0,.1-5q-.1-4.79-.29-11.93t-.49-15.45q-.29-8.31-.59-15.55t-.59-12.32q-.29-5.08-.29-5.67a6,6,0,0,1,1.57-5.18,10.27,10.27,0,0,1,5.08-2.84q8.8-1.56,16.33-2.93a107.51,107.51,0,0,1,15-1.66,75.07,75.07,0,0,1,15.16,1,80.81,80.81,0,0,1,16.92,5,5.44,5.44,0,0,1,2.64,2.44,6,6,0,0,1,.49,3.23q-.2,2.93-.39,5.87t-.59,5.67q-.59,4.5-1.17,8.9t-1.17,8.9q-.2,1.37-.88,6.46t-1.56,10.86q-.88,5.77-1.66,10.66t-1,6.06q-.78,3.52-1.37,6.94t-1.37,6.94a4.88,4.88,0,0,1-1.57,3.23,4.7,4.7,0,0,1-3.33.68,5.71,5.71,0,0,1-3.42-1.47A6,6,0,0,1,530.3,534a119.07,119.07,0,0,1-4.79-26.11,159.54,159.54,0,0,1,.49-26.7q.39-4.3.78-8.7T527.56,463.44Z" transform="translate(-149.81 -418.63)"/><path class="cls-1" d="M573.33,462.26h-2.74q-2.15.2-4.3.2a24.09,24.09,0,0,0-4.3.39c-1.17.26-2,.1-2.35-.49a11,11,0,0,0-1.37-1.66,1.72,1.72,0,0,1-.39-1.86,17.39,17.39,0,0,1,1-1.86,22.15,22.15,0,0,1,13.89-9.58,35.2,35.2,0,0,0,3.52-1,17.14,17.14,0,0,1,3.52-.78q8.8-.78,17.41-1.17a13.9,13.9,0,0,1,2.25-.2h2.25a62.2,62.2,0,0,1,8.41-.59,37.93,37.93,0,0,1,8.41,1q5.47,1.17,6.06,6.45.39,2.93.49,5.87t.29,5.67q.19,5.09.29,10.17t.29,10.17a43.68,43.68,0,0,1,.1,5q-.1,2.45-.1,5-.2,3.72-.2,7.33a70.26,70.26,0,0,1-.39,7.34q-.39,2.74-.78,5.57t-.78,5.57c-.13.78-.23,1.53-.29,2.25a20.39,20.39,0,0,1-.29,2.05q-.39,3.13-1.56,4.3t-4.3,1.17a24.19,24.19,0,0,1-3,.2h-3q-3.33,0-4.3-1.08t-.59-4.4a53.72,53.72,0,0,0,.39-11.15q-.39-5.47-.59-11.15a3.45,3.45,0,0,0-.49-2.25q-.49-.49-2.25-.29L593,499.62q-5.18.59-10.27,1.37a2.06,2.06,0,0,0-1.47.68,8.53,8.53,0,0,0-1.08,1.27q-1.57,2.74-2.93,5.67t-2.93,5.67q-1.17,2.15-2.45,4.3t-2.45,4.3a9.59,9.59,0,0,1-2.84,3.33,23.34,23.34,0,0,1-3.81,2.15,5.75,5.75,0,0,1-3.13.29,3.74,3.74,0,0,1-2.35-1.27,4.35,4.35,0,0,1-.39-5.48,38,38,0,0,0,4.89-11.83q1.37-6.16,2.93-12.42a59.92,59.92,0,0,0,1.47-7.43,67.39,67.39,0,0,1,1.47-7.63q1.37-5.08,2.74-10.07T573.33,462.26Zm12.32,21.91a28.27,28.27,0,0,1,10.66-1.08,68.93,68.93,0,0,0,11.05.1,76.61,76.61,0,0,1,.78-11.05,26.82,26.82,0,0,0-.59-10.66H597.39q-1.57,0-3.23.1t-3.42.1a2.11,2.11,0,0,0-2.35,2.15q-.2,2.93-.39,5.87t-.59,5.67q-.39,2.15-.88,4.21T585.65,484.17Z" transform="translate(-149.81 -418.63)"/><path class="cls-2" d="M693.92,536.4a5.4,5.4,0,0,1,3.52,4,6.41,6.41,0,0,1-.78,5.38,5.11,5.11,0,0,1-3.52,1.47,5.9,5.9,0,0,0-3.72,1.47,3.85,3.85,0,0,1-2.05.68,7.7,7.7,0,0,0-2.25.49q-1.37.39-4.4,1t-6.36,1.08q-3.33.49-6.16.88t-3.81.59a3.26,3.26,0,0,1-3.72-2.15q-.59-1.56-1.27-3.13a11.11,11.11,0,0,1-.88-3.13,2.87,2.87,0,0,1,.59-2.15,5.62,5.62,0,0,1,1.76-1.76,30.64,30.64,0,0,1,4.3-2.64q2.15-1.07,4.5-2.44a28,28,0,0,1,4.5-2.15,25.4,25.4,0,0,1,4.21-.1,57.33,57.33,0,0,1,6.36.59q3.32.49,6.06,1T693.92,536.4Zm45.58,7.82a5.7,5.7,0,0,1-.39,3.62q-.78,1.66-1.37,3.23-1.76,3.72-5.08,2.44a20.19,20.19,0,0,1-6.55-4.3,45.54,45.54,0,0,1-5.77-6.55q-2.54-3.52-3.13-4.3a19.55,19.55,0,0,1-1.66-3.33,20,20,0,0,0-1.66-3.33q-1-1.76-3-5.28t-4.5-7.43q-2.45-3.91-4.89-7.33a42.53,42.53,0,0,0-4-5,21.14,21.14,0,0,0-3.81-3q-2.06-1.27-4.21-2.84-1.57-1-2.84-1.86t-2.84-1.86a1.78,1.78,0,0,0-1-.49,7.82,7.82,0,0,1-1.57-.49c-.13.52-.26,1-.39,1.37a3.65,3.65,0,0,0-.2,1.17q-.59,3.92-1,7.73a34.26,34.26,0,0,1-1.56,7.33,52,52,0,0,0-1.76,7.34q-.59,3.62-1,7.33-.2,2.54-1,3.13t-3.52.39a1.65,1.65,0,0,0-1.56,0,2.5,2.5,0,0,1-2.35-.29,4.27,4.27,0,0,1-1.17-1.66,3.64,3.64,0,0,1-.29-.78,4.05,4.05,0,0,0-.29-.78q-.59-2.15-1.86-8.7T661,505.88q-1.08-7.23-1.76-13.4t-.29-7.92q0-5.08.1-10.37t.29-10.37q0-2.15-.2-4.5a25.81,25.81,0,0,1,0-4.5q.39-3.32.69-6.36t.68-6.36a10.76,10.76,0,0,0,.39-2.35A5.6,5.6,0,0,1,664,434.1,54.06,54.06,0,0,1,674.56,430a7,7,0,0,1,7.34,2.44,10,10,0,0,1,2.44,7.53q-.2,1.76-.39,3.52a30.08,30.08,0,0,0-.2,3.33l-.59,22.3a5.4,5.4,0,0,1-.2,1.47q-.2.69-.39,1.47c.13.13.23.2.29.2s.16.07.29.2q2.74-3.71,5.57-7.24t5.57-7.43q3.13-4.5,5.87-9.1a89,89,0,0,1,6.06-8.9,38.92,38.92,0,0,0,4.6-7.53,44.62,44.62,0,0,1,4.6-7.73l1.47-1.86q.68-.88,1.47-1.86a7.87,7.87,0,0,1,6.26-2.15q4.3.39,5.77,2.74a8.54,8.54,0,0,1,1.08,5.67,27.31,27.31,0,0,1-2.15,7.43,69.85,69.85,0,0,1-4,7.92q-2.25,3.81-4.5,7.24T717.2,455a68.51,68.51,0,0,1-7.73,9q-4.21,4.11-8.51,8l-6.46,6.06-6.45,6.06a62.89,62.89,0,0,1,16,10,115.05,115.05,0,0,1,8.31,8.41q5.18,5.68,10.27,12t9.39,12.13a51.43,51.43,0,0,1,5.67,8.9,11.6,11.6,0,0,1,1.17,4.21Q739.1,542.07,739.5,544.22Z" transform="translate(-149.81 -418.63)"/><path class="cls-2" d="M769.62,501.77a52.06,52.06,0,0,1,8.41,1.47,68.46,68.46,0,0,1,8,2.64,13.27,13.27,0,0,1,4.89,3.72,4.21,4.21,0,0,1,1.37,4.21,4,4,0,0,1-2.54,3.62,61.51,61.51,0,0,1-22.49,4.11q-6.26,0-13.69.29a48.35,48.35,0,0,1-13.69-1.27,6.72,6.72,0,0,1-3.52-5.18q-.59-3.62,2.93-6.36a30.53,30.53,0,0,1,5.57-3.52,40.57,40.57,0,0,1,6.16-2.35,2.67,2.67,0,0,0,2-1.27,6.18,6.18,0,0,0,.39-2.44,104.63,104.63,0,0,1,0-12.81,87.48,87.48,0,0,1,1.76-12.81,15,15,0,0,0,.2-2.74,5.17,5.17,0,0,0-.2-1.56,23.79,23.79,0,0,0-2.54-.59,15.74,15.74,0,0,0-2.54-.2q-3.52,0-4.3-4.69a4.57,4.57,0,0,1,1.86-3.81A18.4,18.4,0,0,1,753,457a31.08,31.08,0,0,1,7.43-2,31.8,31.8,0,0,1,7.82-.2,17,17,0,0,1,6.65,2.05,8.15,8.15,0,0,1,3.91,4.79,6.1,6.1,0,0,1,.29,2.25,3.29,3.29,0,0,1-1.08,1.86q-1.37,1-2.64,1.76a7,7,0,0,1-2.84,1q-1.76.39-2.93.59Z" transform="translate(-149.81 -418.63)"/><path class="cls-2" d="M843.95,502.56a55.86,55.86,0,0,0,7.24,19.66,43,43,0,0,0,15.06,15.35q1,.59,2.05,1.37a2.27,2.27,0,0,1,.68,2.54,6.82,6.82,0,0,0-.2,1.66,1.41,1.41,0,0,1-.59,1.27q-3.13,2-8.21,1.08A40.17,40.17,0,0,1,849.42,542a60.41,60.41,0,0,1-10.37-6.36,37.6,37.6,0,0,1-7.63-7.43,48.06,48.06,0,0,1-4-6.75q-1.66-3.42-3.62-6.75a6.35,6.35,0,0,1-.39-1.56,15.76,15.76,0,0,0-.59-2.35,17.21,17.21,0,0,0-.88-2.15c-.33-.65-.68-1-1.08-1a3.9,3.9,0,0,0-3,2.74q-.88,2.35-1.47,4.3-.78,1.76-2.15,4.69t-3.13,6.06a53.25,53.25,0,0,1-3.81,5.87,18.5,18.5,0,0,1-4,4.11q-2,1.37-3.42.39a4.14,4.14,0,0,1-1.66-3.33q0-7.23-.29-15.75t-.29-15.16q0-2.54.1-5.09t.29-5.09v-4.3q0-2.15.2-4.3.19-3.91.78-9.29l1.17-10.76q.59-5.38,1.17-10.27t1-7.63q.39-4.11,3.91-5.09.39-1.17,4.5-1.17a93.71,93.71,0,0,1,10.17.68q6.06.69,13,2.05t13,2.64q6.06,1.27,10.37,2.35l5.09,1.27a6,6,0,0,1,4.3,6.06,158.06,158.06,0,0,1-2.25,21.91A154.79,154.79,0,0,1,859,496.88a6.87,6.87,0,0,1-5.48,5.09q-2,.39-3.81.59t-3.81.59a3.16,3.16,0,0,1-1-.2,3.29,3.29,0,0,0-1-.2l-.2-.2Zm-1.17-20q.39-4.69.78-9.49t.78-9.68q-5.87-.39-11.44-1.27a52.46,52.46,0,0,1-11.05-3V485a50.46,50.46,0,0,1,10.27-2.25A64.1,64.1,0,0,1,842.77,482.61Z" transform="translate(-149.81 -418.63)"/><path class="cls-2" d="M899.1,511.56a19.65,19.65,0,0,1,7.43-2.93,71.9,71.9,0,0,1,7.43-.78,36.25,36.25,0,0,1,6.46-.2q3.13.2,6.46.59,2.35.2,2.54-1.76l1.17-10a203.43,203.43,0,0,0,4.4-26.9,149.45,149.45,0,0,0,.1-24.74,5.43,5.43,0,0,0-.2-1.47,5.26,5.26,0,0,1-.2-1.47q.59-5.87,6.85-5.87a9.22,9.22,0,0,1,8.8,4.69,32.24,32.24,0,0,1,3.91,12.52,83.15,83.15,0,0,1,.29,16.72,155.21,155.21,0,0,1-2.25,17.31q-1.57,8.21-3.33,14.47t-3.13,8a38.38,38.38,0,0,0-2.35,4.11,19.74,19.74,0,0,0,1.86,1.66,10.21,10.21,0,0,1,1.66,1.66,46,46,0,0,1,4.69,6.85,16.26,16.26,0,0,1,2,8,2.82,2.82,0,0,1-1.76,2.64,4.35,4.35,0,0,1-3.72.1,152.2,152.2,0,0,0-15.65-3.91,109.78,109.78,0,0,0-18.09-2.05,80.8,80.8,0,0,0-17.9,1.37,35.57,35.57,0,0,0-14.67,6.16,2.92,2.92,0,0,1-2.64.59,26.07,26.07,0,0,1-2.64-1q-2-.78-1.37-3.33a19.36,19.36,0,0,1,2.25-5.38q1.66-2.83,3.42-5.28t2.15-3a2.6,2.6,0,0,0-.39-2.35,74.35,74.35,0,0,1-4.4-15.35q-1.66-8.9-2.45-17.9a138.26,138.26,0,0,1-.49-17A54.22,54.22,0,0,1,877,453.66a40.06,40.06,0,0,1,1.56-3.91,11.17,11.17,0,0,1,2.93-3.52,5.73,5.73,0,0,1,4.5-1,23.44,23.44,0,0,0,2.93.2,19.67,19.67,0,0,1,2.74.2,8.06,8.06,0,0,1,4.89,2.93,6.56,6.56,0,0,1,1,5.28,13.76,13.76,0,0,0-.1,3.62q.1,3.42.2,8.7t.29,11.54q.19,6.26.39,11.93t.29,10q.1,4.31.1,5.67c0,1,0,2,.1,2.93S899,510.25,899.1,511.56Z" transform="translate(-149.81 -418.63)"/></svg>