<svg id="Layer_1" data-name="Layer 1" xmlns="http://www.w3.org/2000/svg" viewBox="0 0 855.03 185.21"><defs><style>.cls-1{fill:#f4eae1;}</style></defs><title>Logo1</title><path class="cls-1" d="M976.87,492a181,181,0,0,0,2.62-20.11,108.48,108.48,0,0,0-.43-21.79,57,57,0,0,0-7.27-22.2A34,34,0,0,0,942,411h-.86c-13,.15-23.7,7.18-28.59,18.07a33.68,33.68,0,0,0-15.13-7.82l-1.12-.26-1.14-.16a44.94,44.94,0,0,0-6-.44,33.32,33.32,0,0,0-4.3-.28,30.34,30.34,0,0,0-14.61,3.67l-.6-.19-1.32-.32-5-1.25c-3.19-.79-6.87-1.63-11.29-2.56-4.1-.86-8.57-1.77-13.31-2.7-5.27-1-10.32-1.83-15-2.37a117.07,117.07,0,0,0-13-.84c-7.62,0-13.28,1.93-17.45,4.57A29.47,29.47,0,0,0,780.19,432a43.42,43.42,0,0,0-9.34-2,54.39,54.39,0,0,0-5.64-.29,59,59,0,0,0-8.32.6l-.64.11c0-.14,0-.28.06-.42a33.39,33.39,0,0,0-4.71-21.84c-3-4.8-10.2-13.05-24.68-14.38l-.53,0-.53,0q-.92,0-1.82,0a32.72,32.72,0,0,0-23.35,9.49l-1,1-.87,1.09c-.6.75-1.17,1.47-1.64,2.08l-1.3,1.65-.3.38-.89,1.21a31.35,31.35,0,0,0-18.24-5.73,34.09,34.09,0,0,0-7.22.79l-.68.15-.67.19a79.33,79.33,0,0,0-15.43,6l-.16.09a30.65,30.65,0,0,0-14,15.16,33.37,33.37,0,0,0-14.41-7,63.26,63.26,0,0,0-13.82-1.64c-3.27,0-6.61.45-10,.45h-.69a38.84,38.84,0,0,0-4.54.41c-5.69.28-11.51.81-17.33,1.32l-.29,0-.29,0a42.28,42.28,0,0,0-8.64,1.91,10.27,10.27,0,0,1-1,.29l-.42.1a49.64,49.64,0,0,0-11.33,4.2A102.93,102.93,0,0,0,536,421.85a101.56,101.56,0,0,0-16.42-1.36c-1.26,0-2.53,0-3.78.07a133.11,133.11,0,0,0-18.45,2q-7.48,1.36-16.23,2.92l-.86.15-.28.07c-.62-.46-1.24-.9-1.9-1.32l-1.89-1.22-2.08-.86c-6.3-2.6-13.64-4.19-22.45-4.86-3-.22-6-.34-9-.34a132.93,132.93,0,0,0-14.44.81,149.1,149.1,0,0,0-22.94,4.36,97.47,97.47,0,0,0-12.55,4.32,33.38,33.38,0,0,0-5.35-2.52l-1.17-.46-1.32-.32-5-1.25c-3.19-.8-6.88-1.63-11.29-2.56-4.1-.86-8.57-1.77-13.31-2.7-5.27-1-10.32-1.83-15-2.37a117,117,0,0,0-13-.84c-7.62,0-13.27,1.93-17.44,4.57a29.75,29.75,0,0,0-4.33,2.8,78.11,78.11,0,0,0-18.7-3.49c-3-.22-6-.34-9-.34a133,133,0,0,0-14.44.81,150.17,150.17,0,0,0-15.8,2.6,32.43,32.43,0,0,0-4.57-12.42c-3-4.8-10.2-13.05-24.69-14.38l-.53,0-.53,0q-.92,0-1.81,0A32.72,32.72,0,0,0,192,403.12l-1,1-.87,1.09q-.89,1.11-1.66,2.1l-1.28,1.62-.3.38-.89,1.22a31.35,31.35,0,0,0-18.24-5.73,34.12,34.12,0,0,0-7.22.79l-.68.15-.67.19a79.33,79.33,0,0,0-15.43,6l-.17.09a30.65,30.65,0,0,0-16.38,25.23l-.09.37-.19,1.57c-.27,2.28-.52,4.6-.74,6.9q-.27,2.79-.63,5.85l0,.32,0,.32a50.78,50.78,0,0,0,0,8.82c.06.75.1,1.44.11,2.07-.13,3.36-.22,6.82-.29,10.28-.06,3-.09,6.15-.1,9.28a61.92,61.92,0,0,0,.44,12.24c.49,4.4,1.12,9.22,1.88,14.31s1.62,10.19,2.53,14.88c.22,1.13.42,2.14.6,3q-.54.73-1.05,1.49a27.78,27.78,0,0,0-4.52,19.75,36,36,0,0,0,2.69,9.41c.29.66.55,1.31.78,1.92l.32.86.38.83a28.22,28.22,0,0,0,25.76,16.73,29.39,29.39,0,0,0,4.48-.35l.5-.08.41-.08c.15,0,.82-.14,2.49-.37,2-.27,4.1-.57,6.37-.91,2.54-.37,5.06-.8,7.48-1.27s4.4-.9,5.95-1.33a29.09,29.09,0,0,0,8.59-2.66,30.15,30.15,0,0,0,9.16-3.83A44.93,44.93,0,0,0,215,576.85a29.36,29.36,0,0,0,10.54,2c11.11,0,21.1-6.54,26.09-17.07l.45-.94.37-1c.15-.41.35-.87.59-1.38a30.52,30.52,0,0,0,1.87-5.2c1.54.24,3.09.46,4.67.64a101.44,101.44,0,0,0,29.8-1,72.18,72.18,0,0,0,7.13-1.68,27.5,27.5,0,0,0,21.18,10,28.62,28.62,0,0,0,16.44-5.31,37.71,37.71,0,0,0,3.43-2.71q1.39,1.17,2.91,2.31a85.72,85.72,0,0,0,14.64,9,65.28,65.28,0,0,0,17.16,5.64,42.55,42.55,0,0,0,7.23.64,34.8,34.8,0,0,0,18.5-5.15l.29-.18.28-.19A26.25,26.25,0,0,0,409.17,551a107.21,107.21,0,0,0,15.32,2.86,101.44,101.44,0,0,0,29.8-1,71.25,71.25,0,0,0,9.72-2.49,28.24,28.24,0,0,0,14.39,8,30.31,30.31,0,0,0,6.84.79,28.1,28.1,0,0,0,23.44-12.38,31.94,31.94,0,0,0,8.36,9.67,30.5,30.5,0,0,0,17.5,6.81c.73,0,1.45.07,2.16.07a29,29,0,0,0,17.56-5.71,28.12,28.12,0,0,0,4.29-4c.7,0,1.4.08,2.1.08a30.85,30.85,0,0,0,10.85-2l.8-.29.77-.34a48.39,48.39,0,0,0,7.91-4.49,33.07,33.07,0,0,0,5.37-4.71,27.87,27.87,0,0,0,2.09,2.67c3.85,4.23,10.92,9.38,22.8,9.38h3c1.55,0,3.14-.19,4.72-.35a30.8,30.8,0,0,0,14.87-4.33,36.09,36.09,0,0,0,2.58,8.81c.28.65.55,1.29.78,1.92l.32.85.38.83a28.21,28.21,0,0,0,25.76,16.73,29.42,29.42,0,0,0,4.49-.35l.49-.08.41-.08c.15,0,.82-.14,2.49-.37,2-.27,4.1-.57,6.38-.91,2.54-.37,5.06-.8,7.49-1.27s4.39-.9,5.94-1.32a29.1,29.1,0,0,0,8.59-2.66,30.2,30.2,0,0,0,9.16-3.83,44.91,44.91,0,0,0,14.54,9.26,29.36,29.36,0,0,0,10.54,2c11.11,0,21.1-6.54,26.09-17.08l.44-.94.36-1c.16-.41.35-.88.59-1.39a30.39,30.39,0,0,0,2.87-11.92l2.67,0a90.9,90.9,0,0,0,9.22-.48,28.52,28.52,0,0,0,9.45,10.54,27.27,27.27,0,0,0,15.21,4.63,28.62,28.62,0,0,0,16.45-5.32A37.63,37.63,0,0,0,821,553.2q1.39,1.17,2.91,2.31a85.7,85.7,0,0,0,14.64,9,65.25,65.25,0,0,0,17.16,5.64,42.56,42.56,0,0,0,7.24.64,34.8,34.8,0,0,0,18.51-5.16l.28-.18.28-.18a26.16,26.16,0,0,0,4.71-4,28.72,28.72,0,0,0,9.71-4.53l.34-.25a11.47,11.47,0,0,1,4.51-1.69,55.08,55.08,0,0,1,10.4-1c.65,0,1.31,0,2,0a85.17,85.17,0,0,1,14,1.58c4.73.95,8.95,2,12.54,3.09a29.58,29.58,0,0,0,9.8,1.68,29.05,29.05,0,0,0,13.1-3.11,27.87,27.87,0,0,0,15.58-25,41.06,41.06,0,0,0-5.11-20.17q-.48-.87-1-1.73.24-.8.48-1.65C974.42,503.66,975.67,498.25,976.87,492Z" transform="translate(-124.81 -393.63)"/></svg>